<?xml version="1.0" standalone="no"?>
<!DOCTYPE svg PUBLIC "-//W3C//DTD SVG 20010904//EN"
 "http://www.w3.org/TR/2001/REC-SVG-20010904/DTD/svg10.dtd">
<svg version="1.0" xmlns="http://www.w3.org/2000/svg"
 width="413.000000pt" height="413.000000pt" viewBox="0 0 413.000000 413.000000"
 preserveAspectRatio="xMidYMid meet">
<metadata>
Created by potrace 1.11, written by Peter Selinger 2001-2013
</metadata>
<g transform="translate(0.000000,413.000000) scale(0.100000,-0.100000)"
fill="#000000" stroke="none">
<path d="M1785 3861 c-33 -10 -91 -33 -130 -52 -265 -132 -357 -226 -467 -481
-21 -48 -41 -107 -44 -130 -4 -24 -18 -68 -31 -98 -27 -61 -57 -219 -49 -259
12 -61 18 -123 21 -226 1 -60 4 -116 6 -124 2 -8 -6 -20 -18 -26 -104 -54
-122 -168 -49 -318 20 -43 41 -77 47 -77 6 0 8 -3 6 -7 -3 -5 15 -44 39 -88
44 -80 67 -126 98 -197 20 -47 39 -51 25 -5 -24 79 -51 272 -55 387 -2 69 -6
142 -9 163 -6 46 1 49 13 5 7 -28 14 -34 44 -39 34 -5 37 -4 42 23 6 31 54 59
98 57 16 0 8 -7 -29 -24 -61 -27 -67 -42 -21 -47 21 -2 34 -9 36 -20 3 -14 -3
-15 -37 -11 -27 4 -41 2 -41 -6 0 -6 4 -11 8 -11 5 0 17 -18 27 -41 13 -28 31
-47 59 -61 23 -11 54 -30 70 -41 25 -18 38 -19 123 -14 53 4 102 12 110 19 8
6 42 13 76 14 48 2 63 6 67 20 6 16 7 16 12 -3 3 -12 1 -26 -5 -32 -6 -6 -7
-14 -3 -18 4 -4 16 3 26 17 10 14 22 21 27 16 4 -4 -5 -19 -22 -32 l-30 -24
27 2 c15 1 26 5 25 8 -1 4 12 21 30 39 18 17 35 47 39 66 8 44 27 59 71 58 38
-1 73 -27 73 -54 0 -39 62 -150 76 -136 4 4 1 14 -6 22 -11 13 -11 20 0 40 7
14 17 25 22 25 4 0 8 5 8 10 0 6 -7 10 -15 10 -8 0 -15 5 -15 10 0 6 5 10 10
10 7 0 7 7 0 21 -7 11 -9 23 -7 26 3 2 11 -5 17 -17 6 -12 26 -28 43 -35 18
-7 58 -29 90 -48 94 -57 219 -70 269 -28 7 6 25 20 41 32 15 11 27 30 27 42
l0 22 18 -22 c13 -17 21 -20 32 -13 13 9 11 13 -9 28 -21 17 -22 21 -10 40 11
17 22 22 51 20 32 -3 38 -7 38 -25 0 -24 14 -31 25 -12 4 5 19 15 33 22 l27
11 -27 4 c-16 2 -28 8 -28 13 0 6 -25 9 -62 8 -41 -2 -63 1 -66 9 -2 7 2 12 8
12 15 0 2 41 -19 57 -14 11 -12 12 12 13 38 0 25 18 -18 26 -20 3 -38 10 -41
15 -3 5 -19 9 -36 9 -51 0 -158 21 -153 30 3 5 -11 14 -30 20 -33 11 -35 13
-18 26 12 9 50 13 121 14 93 0 109 -3 168 -30 53 -24 66 -27 71 -15 3 8 9 12
14 9 5 -3 9 0 9 6 0 30 -130 110 -180 110 -37 1 -188 -9 -246 -15 -28 -4 -68
-15 -88 -26 -20 -11 -41 -17 -45 -15 -5 3 -16 -3 -26 -14 -10 -11 -24 -16 -33
-12 -14 5 -15 3 -5 -9 8 -10 9 -27 3 -54 -5 -21 -5 -46 -1 -54 13 -21 -24 -97
-45 -93 -12 3 -15 -1 -11 -12 5 -13 -3 -16 -52 -16 -38 0 -63 5 -70 14 -9 10
-30 14 -77 12 -70 -3 -86 14 -23 24 l34 6 -35 23 c-29 18 -30 21 -10 16 14 -4
35 -18 47 -33 19 -22 25 -24 45 -15 15 8 17 12 8 12 -24 1 -48 62 -38 97 11
38 1 95 -20 111 -9 7 -28 13 -42 13 -14 0 -36 7 -48 16 -29 20 -135 43 -227
49 -38 2 -86 7 -106 11 -71 12 -197 -85 -183 -141 6 -24 -12 -43 -45 -50 -14
-2 -21 1 -21 11 0 20 20 104 30 129 5 11 11 30 15 41 3 12 14 32 25 44 11 13
20 31 20 42 0 10 5 18 11 18 5 0 7 5 4 11 -4 6 2 20 13 32 14 15 22 38 23 70
2 27 7 51 11 54 5 2 6 18 3 34 -4 18 -2 29 4 29 17 0 95 82 139 147 41 61 106
123 128 123 24 0 72 35 89 63 16 26 21 28 54 22 20 -4 41 -11 47 -16 6 -5 19
-7 30 -5 11 2 43 -4 71 -14 29 -10 54 -16 57 -13 7 7 66 -17 66 -27 0 -4 18
-14 40 -23 34 -13 40 -13 40 -1 0 8 -9 14 -20 14 -22 0 -27 16 -8 22 7 3 21
-4 32 -13 11 -10 29 -18 40 -17 12 1 44 -6 73 -15 28 -8 54 -13 57 -10 3 3 25
-6 50 -21 24 -14 51 -26 59 -26 8 0 21 -7 28 -16 14 -17 57 -38 74 -36 12 2
75 -89 75 -109 0 -8 5 -21 11 -29 8 -12 10 -10 5 10 -5 25 -5 25 18 -4 13 -16
28 -26 34 -22 6 3 17 -1 25 -9 11 -11 14 -30 10 -75 -4 -57 -2 -64 47 -154 41
-77 54 -112 65 -183 19 -113 19 -143 1 -143 -21 0 -45 -38 -39 -60 12 -47 74
-34 98 21 25 55 28 43 5 -19 -16 -41 -20 -77 -20 -166 0 -112 -23 -279 -55
-396 -20 -73 -20 -86 0 -70 8 7 15 21 15 32 0 10 8 22 18 25 32 12 44 46 15
41 -14 -2 -17 3 -15 22 5 33 22 51 22 22 0 -38 16 -24 34 31 12 38 28 61 60
87 24 19 41 40 39 46 -2 7 1 15 8 20 8 4 10 3 5 -4 -4 -7 -5 -12 -2 -12 10 0
63 113 80 169 20 69 21 153 1 191 -16 31 -29 41 -19 15 5 -12 -2 -15 -32 -15
-22 0 -52 -7 -68 -15 -16 -9 -32 -13 -35 -9 -8 8 30 35 41 28 4 -3 11 1 14 9
3 9 17 18 32 22 l27 7 -24 17 -23 18 44 60 c65 88 76 135 53 231 -10 43 -21
113 -25 157 -4 46 -16 101 -29 128 -11 27 -19 52 -16 57 4 7 -18 65 -55 145
-5 11 -18 48 -29 82 -50 158 -142 285 -291 401 -69 53 -226 134 -305 157 -33
9 -71 22 -85 28 -15 7 -104 12 -220 14 -165 2 -204 0 -255 -16z m-119 -387
c-4 -14 -9 -24 -12 -21 -3 2 -2 17 2 31 3 15 9 25 11 22 3 -3 2 -17 -1 -32z
m-24 -66 c-7 -7 -12 -8 -12 -2 0 14 12 26 19 19 2 -3 -1 -11 -7 -17z m-87
-900 c36 -7 65 -15 65 -18 -1 -32 -60 -49 -165 -50 -39 0 -86 -4 -104 -10 -19
-5 -36 -8 -38 -6 -12 11 22 58 54 75 44 23 98 26 188 9z m55 -118 c24 -8 24
-8 -7 -9 -17 -1 -35 4 -38 9 -7 11 9 11 45 0z m37 -22 c-3 -8 -6 -5 -6 6 -1
11 2 17 5 13 3 -3 4 -12 1 -19z m883 -3 c25 -14 25 -14 -10 -10 -19 3 -65 6
-102 6 -37 1 -65 6 -62 11 9 14 147 9 174 -7z m-998 -37 c-20 -20 -14 -75 11
-99 l22 -22 -35 7 c-53 10 -110 76 -65 76 8 0 15 7 15 15 0 15 27 34 50 35 11
0 11 -3 2 -12z m624 -13 c-4 -10 1 -15 15 -15 27 0 55 -16 63 -36 6 -15 4 -15
-20 1 -17 11 -36 15 -55 11 -31 -6 -36 3 -19 35 13 22 25 26 16 4z m-566 -5
c0 -5 -4 -10 -10 -10 -5 0 -10 5 -10 10 0 6 5 10 10 10 6 0 10 -4 10 -10z m40
0 c0 -5 -2 -10 -4 -10 -3 0 -8 5 -11 10 -3 6 -1 10 4 10 6 0 11 -4 11 -10z
m893 -1 c13 -6 31 -23 40 -39 17 -27 16 -30 -5 -55 -15 -16 -38 -28 -63 -32
l-40 -6 28 26 c29 28 37 83 15 105 -15 15 -6 15 25 1z m-809 -33 l36 -33 -43
-17 c-67 -25 -81 -20 -52 18 8 11 15 30 15 43 0 13 2 23 4 23 3 0 21 -15 40
-34z m649 -1 c-4 -23 0 -43 11 -60 10 -16 12 -25 5 -25 -17 0 -109 34 -108 40
0 5 88 80 94 80 2 0 1 -16 -2 -35z m57 15 c0 -5 -5 -10 -11 -10 -5 0 -7 5 -4
10 3 6 8 10 11 10 2 0 4 -4 4 -10z m45 0 c3 -5 1 -10 -4 -10 -6 0 -11 5 -11
10 0 6 2 10 4 10 3 0 8 -4 11 -10z m-295 -40 c0 -5 -5 -10 -11 -10 -5 0 -7 5
-4 10 3 6 8 10 11 10 2 0 4 -4 4 -10z m-310 -55 c0 -8 -7 -15 -15 -15 -26 0
-18 20 13 29 1 1 2 -6 2 -14z"/>
<path d="M1415 2860 c-3 -5 -1 -10 4 -10 6 0 11 5 11 10 0 6 -2 10 -4 10 -3 0
-8 -4 -11 -10z"/>
<path d="M1404 2832 c-6 -4 -14 -18 -18 -32 -7 -24 -6 -24 8 -6 9 11 16 16 16
11 0 -5 5 -4 12 3 14 14 -1 35 -18 24z"/>
<path d="M1997 2643 c-12 -12 -7 -31 9 -37 20 -8 67 21 59 34 -7 11 -58 13
-68 3z"/>
<path d="M2022 2523 c-16 -30 -15 -73 2 -73 22 0 40 28 28 43 -5 6 -12 21 -14
32 -4 19 -4 19 -16 -2z"/>
<path d="M2005 2299 c-16 -6 -14 -8 13 -8 33 -1 41 4 20 12 -7 2 -22 1 -33 -4z"/>
<path d="M1221 2255 c15 -8 30 -25 34 -37 8 -22 8 -22 12 5 5 34 7 33 -37 40
l-35 6 26 -14z"/>
<path d="M1613 2063 c9 -2 25 -2 35 0 9 3 1 5 -18 5 -19 0 -27 -2 -17 -5z"/>
<path d="M1820 2020 c-12 -12 -19 -24 -16 -29 3 -4 -17 -54 -44 -110 -28 -56
-50 -114 -50 -128 0 -23 3 -25 32 -21 22 4 37 -1 50 -14 10 -10 32 -21 48 -25
21 -4 30 -11 30 -25 0 -19 5 -20 78 -14 42 3 83 5 90 6 6 0 12 9 12 19 0 28
17 35 42 17 35 -25 94 -20 123 9 14 13 25 28 25 32 -1 23 -33 44 -80 53 -50 9
-57 8 -92 -15 -21 -14 -41 -25 -45 -25 -3 0 -39 16 -79 36 -59 29 -76 34 -93
25 -11 -6 -36 -11 -56 -11 -35 0 -37 1 -30 28 3 15 19 44 36 64 16 20 29 44
29 52 0 9 4 16 9 16 6 0 9 18 8 40 -1 22 -3 40 -4 40 -2 0 -12 -9 -23 -20z"/>
<path d="M2210 1901 c0 -7 9 -29 21 -48 12 -18 21 -49 21 -67 0 -39 11 -61 27
-52 21 13 11 51 -29 116 -22 36 -40 59 -40 51z"/>
<path d="M1341 1656 c-13 -16 0 -88 25 -138 9 -17 10 -29 4 -33 -6 -4 -7 -13
-1 -24 6 -10 12 -28 14 -42 5 -28 13 -52 35 -99 8 -19 15 -37 15 -40 -1 -3 -5
-14 -8 -25 -6 -16 -5 -17 4 -5 8 11 11 11 11 2 0 -7 10 -23 23 -35 22 -22 117
-160 117 -171 0 -3 -6 -6 -14 -6 -8 0 -18 -4 -21 -10 -4 -6 1 -7 12 -3 10 3
15 3 11 -2 -4 -4 0 -14 8 -22 8 -9 12 -23 9 -34 -4 -11 0 -26 7 -34 29 -32 38
-45 38 -52 0 -5 27 -29 61 -53 33 -25 73 -55 87 -67 25 -21 26 -22 6 -23 -11
0 -34 13 -50 30 -16 16 -33 30 -38 30 -6 0 -20 10 -34 22 -22 21 -24 22 -33 5
-11 -19 -50 -18 -104 3 -20 8 -31 8 -33 1 -6 -18 -31 -12 -31 7 0 9 -8 41 -19
69 -17 48 -20 51 -37 39 -16 -11 -21 -11 -33 0 -7 8 -18 14 -23 14 -22 0 -5
-29 46 -78 30 -29 55 -56 55 -59 0 -3 -6 0 -13 6 -8 6 -16 8 -19 6 -3 -3 -17
-1 -32 4 -19 8 -26 7 -26 -2 0 -8 -3 -9 -8 -1 -4 6 -27 14 -51 17 -51 6 -39
-7 22 -23 20 -6 37 -17 37 -24 0 -8 11 -21 24 -29 18 -12 26 -13 36 -4 10 9
11 9 6 0 -5 -9 2 -13 23 -13 16 0 33 -5 37 -12 9 -14 -124 -2 -142 13 -7 6
-18 9 -26 8 -28 -3 -38 2 -38 19 0 11 -3 13 -8 5 -6 -9 -27 -3 -80 22 -40 19
-77 35 -82 35 -5 0 -13 6 -17 13 -13 21 -153 71 -153 54 0 -3 19 -14 43 -25
23 -11 51 -29 62 -39 11 -10 50 -38 88 -62 37 -24 67 -47 67 -50 0 -4 12 -8
27 -9 15 -1 32 -7 38 -14 7 -8 5 -9 -6 -5 -12 4 -15 1 -12 -12 4 -15 -1 -18
-30 -16 -19 2 -50 10 -69 18 -18 8 -42 17 -53 20 -11 3 -29 8 -40 12 -15 5
-13 0 9 -20 16 -15 36 -25 46 -22 10 2 25 -4 34 -14 9 -11 23 -19 32 -19 14 0
14 -3 4 -15 -9 -10 -17 -12 -23 -6 -5 5 -16 7 -23 4 -27 -10 -14 -30 31 -49
25 -10 45 -24 45 -32 0 -9 -6 -12 -17 -9 -10 3 -56 17 -103 30 -47 14 -94 28
-105 32 -11 4 -6 -3 12 -15 57 -38 222 -91 314 -101 48 -5 113 -16 145 -24 33
-9 104 -22 159 -30 55 -8 136 -21 181 -29 89 -16 353 -33 342 -22 -3 4 -12 9
-20 10 -7 2 -24 6 -38 9 -14 3 -88 8 -164 12 -77 3 -141 7 -143 9 -8 7 226 18
251 12 28 -7 46 11 25 25 -7 4 -67 5 -132 2 -105 -5 -121 -4 -129 10 -5 10
-20 17 -34 17 -14 0 -23 4 -20 9 3 5 -5 12 -19 15 -13 3 -31 19 -39 34 l-14
27 97 1 c237 4 430 16 491 31 76 18 200 64 200 73 0 8 -146 -17 -185 -31 -18
-7 -107 -12 -215 -14 -102 -1 -174 2 -160 5 26 7 21 12 -25 24 -11 3 25 4 80
2 125 -4 276 8 335 28 l45 16 -42 -4 c-24 -2 -43 -2 -43 1 0 13 38 51 45 45 5
-4 5 -1 0 6 -4 8 -16 12 -26 9 -33 -9 -32 13 0 45 17 17 31 35 31 40 0 5 4 7
9 4 11 -7 33 18 24 27 -3 4 26 39 66 78 39 39 71 76 71 82 0 7 -4 6 -10 -3 -9
-13 -10 -13 -10 0 0 20 29 57 108 139 59 63 67 74 62 96 -1 6 2 7 6 3 9 -9 34
10 34 26 0 6 -4 4 -10 -4 -13 -21 -23 -5 -11 18 15 29 14 55 -1 45 -7 -4 -23
-6 -35 -5 -12 2 -32 -2 -45 -9 -30 -16 -95 -22 -103 -8 -4 6 2 13 14 16 17 4
19 9 10 25 -8 15 -7 23 8 34 16 12 16 13 1 14 -9 0 -19 9 -23 20 -11 34 -68
54 -133 46 -31 -4 -71 -12 -88 -18 -24 -9 -41 -7 -83 7 -43 14 -59 15 -99 5
-40 -9 -56 -8 -96 5 -32 11 -61 14 -92 9 -26 -4 -49 -2 -57 4 -6 6 -39 13 -72
17 -33 3 -80 8 -105 11 -24 2 -51 1 -60 -2 -28 -13 -58 -15 -65 -4 -3 6 1 13
9 16 20 8 21 24 1 24 -8 0 -15 -4 -15 -10 0 -14 -59 23 -65 41 -3 8 -23 25
-44 37 -33 19 -40 20 -50 8z m737 -266 c56 1 102 -3 102 -8 0 -24 -41 -42
-122 -52 -102 -12 -180 3 -231 46 l-32 27 90 -7 c50 -4 136 -7 193 -6z m253
-40 c34 -19 59 -100 30 -100 -4 0 -6 -13 -3 -30 3 -23 0 -30 -12 -30 -10 0
-13 -6 -9 -16 3 -8 -3 -25 -14 -37 -11 -12 -23 -30 -26 -39 -4 -10 -16 -18
-27 -18 -12 0 -29 -4 -39 -9 -9 -5 -66 -12 -127 -15 -60 -2 -122 -10 -137 -15
-22 -9 -33 -8 -50 4 -12 8 -33 15 -47 15 -34 0 -110 50 -110 72 0 9 -7 18 -15
20 -12 2 -11 7 3 26 17 22 24 23 247 31 218 8 295 19 295 43 0 5 4 7 9 3 6 -3
5 9 0 30 -9 33 -5 75 7 75 3 0 14 -5 25 -10z m-921 -560 c0 -5 -4 -10 -9 -10
-6 0 -13 5 -16 10 -3 6 1 10 9 10 9 0 16 -4 16 -10z m170 -200 c20 -6 21 -8 5
-8 -11 0 -29 3 -40 8 -25 11 1 11 35 0z m-30 -64 c0 -11 -19 -15 -25 -6 -3 5
1 10 9 10 9 0 16 -2 16 -4z m75 -16 c4 -6 -7 -10 -25 -10 -18 0 -29 4 -25 10
3 6 15 10 25 10 10 0 22 -4 25 -10z"/>
<path d="M1422 1210 c0 -14 2 -19 5 -12 2 6 2 18 0 25 -3 6 -5 1 -5 -13z"/>
<path d="M2669 1046 c5 -12 21 -40 35 -61 15 -21 29 -56 32 -77 4 -21 10 -41
15 -44 5 -3 7 1 5 8 -2 7 -10 36 -16 63 -15 58 -47 122 -66 129 -10 4 -11 -1
-5 -18z"/>
<path d="M1367 1046 c-3 -8 -2 -18 3 -21 13 -8 24 15 12 27 -6 6 -11 4 -15 -6z"/>
<path d="M1346 1011 c-4 -7 -5 -15 -2 -18 9 -9 19 4 14 18 -4 11 -6 11 -12 0z"/>
<path d="M1025 970 c-3 -6 4 -10 17 -10 13 0 47 -7 76 -14 28 -8 52 -12 52
-10 0 3 -19 14 -42 24 -47 21 -93 26 -103 10z"/>
<path d="M2355 909 c-11 -17 1 -21 15 -4 8 9 8 15 2 15 -6 0 -14 -5 -17 -11z"/>
<path d="M1556 845 c4 -8 11 -15 16 -15 6 0 5 6 -2 15 -7 8 -14 15 -16 15 -2
0 -1 -7 2 -15z"/>
<path d="M1295 780 c4 -6 11 -8 16 -5 14 9 11 15 -7 15 -8 0 -12 -5 -9 -10z"/>
<path d="M2475 770 c-3 -5 -1 -10 4 -10 6 0 11 5 11 10 0 6 -2 10 -4 10 -3 0
-8 -4 -11 -10z"/>
<path d="M2303 556 c-88 -30 -169 -59 -180 -66 -40 -25 71 1 186 44 64 24 126
47 139 51 12 3 22 11 22 16 0 11 22 17 -167 -45z"/>
<path d="M3230 536 c-85 -30 -195 -65 -245 -80 -215 -63 -302 -91 -328 -104
-62 -30 -317 -92 -462 -112 -106 -15 -142 -35 -45 -25 43 4 62 3 55 -3 -5 -6
-19 -13 -30 -16 -11 -3 -9 -3 5 -1 14 2 84 20 155 40 72 20 170 47 219 61 49
14 103 31 120 39 17 7 81 27 142 44 62 17 165 49 230 72 66 22 156 54 201 70
80 27 168 68 148 68 -5 0 -80 -24 -165 -53z"/>
<path d="M1749 551 c16 -13 19 -21 10 -21 -10 -1 -10 -3 3 -10 15 -9 262 4
297 16 36 12 -12 19 -132 19 -73 0 -148 4 -167 9 l-35 9 24 -22z"/>
<path d="M2755 550 c-3 -5 -2 -10 4 -10 5 0 13 5 16 10 3 6 2 10 -4 10 -5 0
-13 -4 -16 -10z"/>
<path d="M2490 513 c-45 -20 -127 -51 -239 -89 -8 -2 -12 -7 -9 -10 13 -12
318 105 318 122 0 7 -15 2 -70 -23z"/>
<path d="M2700 530 c-8 -5 -27 -10 -41 -10 -14 0 -54 -12 -90 -26 -134 -54
-257 -88 -424 -118 -94 -16 -294 -7 -393 19 -37 9 -78 13 -104 9 -71 -10 -76
-16 -23 -30 l50 -14 -55 6 c-30 3 -59 9 -65 14 -15 12 -48 16 -62 7 -8 -5 -13
-3 -13 3 0 7 -6 8 -17 2 -9 -6 -29 -6 -46 -1 -16 5 -33 6 -37 4 -8 -5 -298 11
-379 20 -80 9 -34 -7 88 -31 221 -43 365 -54 691 -54 286 0 312 2 420 25 140
29 505 150 535 177 13 11 -16 10 -35 -2z m-957 -177 c-7 -2 -21 -2 -30 0 -10
3 -4 5 12 5 17 0 24 -2 18 -5z"/>
<path d="M2175 410 c-27 -7 -28 -8 -5 -8 14 0 34 3 45 8 25 11 2 11 -40 0z"/>
<path d="M2038 293 c7 -3 16 -2 19 1 4 3 -2 6 -13 5 -11 0 -14 -3 -6 -6z"/>
<path d="M1835 269 c-157 -14 -208 -17 -275 -20 -64 -1 -65 -2 -20 -9 25 -4
103 -6 174 -4 127 4 200 15 211 34 3 6 5 9 3 9 -2 -1 -43 -5 -93 -10z"/>
<path d="M2030 210 l-35 -7 37 -2 c20 0 40 4 43 9 7 11 7 11 -45 0z"/>
</g>
</svg>
